<svg width="22" height="23" viewBox="0 0 22 23" fill="none" xmlns="http://www.w3.org/2000/svg">
<path d="M10.0835 4.16666H3.66683C3.1806 4.16666 2.71428 4.35981 2.37047 4.70363C2.02665 5.04744 1.8335 5.51376 1.8335 5.99999V18.8333C1.8335 19.3196 2.02665 19.7859 2.37047 20.1297C2.71428 20.4735 3.1806 20.6667 3.66683 20.6667H16.5002C16.9864 20.6667 17.4527 20.4735 17.7965 20.1297C18.1403 19.7859 18.3335 19.3196 18.3335 18.8333V12.4167" stroke="#292D32" stroke-opacity="0.5" stroke-width="2" stroke-linecap="round" stroke-linejoin="round"/>
<path d="M16.9585 2.79168C17.3232 2.42701 17.8178 2.22214 18.3335 2.22214C18.8492 2.22214 19.3438 2.42701 19.7085 2.79168C20.0732 3.15635 20.278 3.65096 20.278 4.16668C20.278 4.68241 20.0732 5.17701 19.7085 5.54168L11.0002 14.25L7.3335 15.1667L8.25016 11.5L16.9585 2.79168Z" stroke="#292D32" stroke-opacity="0.5" stroke-width="2" stroke-linecap="round" stroke-linejoin="round"/>
</svg>
