<svg width="25" height="15" viewBox="0 0 25 15" fill="none" xmlns="http://www.w3.org/2000/svg">
<path d="M8.21053 13.6579C8.21053 13.3857 8.31866 13.1247 8.51113 12.9322C8.7036 12.7397 8.96465 12.6316 9.23684 12.6316H15.3947C15.6669 12.6316 15.928 12.7397 16.1205 12.9322C16.3129 13.1247 16.4211 13.3857 16.4211 13.6579C16.4211 13.9301 16.3129 14.1911 16.1205 14.3836C15.928 14.5761 15.6669 14.6842 15.3947 14.6842H9.23684C8.96465 14.6842 8.7036 14.5761 8.51113 14.3836C8.31866 14.1911 8.21053 13.9301 8.21053 13.6579ZM4.10526 7.50001C4.10526 7.22781 4.21339 6.96676 4.40586 6.77429C4.59834 6.58182 4.85938 6.47369 5.13158 6.47369H19.5C19.7722 6.47369 20.0332 6.58182 20.2257 6.77429C20.4182 6.96676 20.5263 7.22781 20.5263 7.50001C20.5263 7.7722 20.4182 8.03325 20.2257 8.22572C20.0332 8.41819 19.7722 8.52632 19.5 8.52632H5.13158C4.85938 8.52632 4.59834 8.41819 4.40586 8.22572C4.21339 8.03325 4.10526 7.7722 4.10526 7.50001ZM0 1.34211C0 1.06992 0.10813 0.808869 0.300601 0.616397C0.493073 0.423925 0.75412 0.315796 1.02632 0.315796H23.6053C23.8775 0.315796 24.1385 0.423925 24.331 0.616397C24.5235 0.808869 24.6316 1.06992 24.6316 1.34211C24.6316 1.61431 24.5235 1.87535 24.331 2.06783C24.1385 2.2603 23.8775 2.36843 23.6053 2.36843H1.02632C0.75412 2.36843 0.493073 2.2603 0.300601 2.06783C0.10813 1.87535 0 1.61431 0 1.34211Z" fill="#292D32"/>
</svg>
