<svg width="52" height="52" viewBox="0 0 52 52" fill="none" xmlns="http://www.w3.org/2000/svg">
<rect width="52" height="52" rx="10" fill="#D9D9D9"/>
<path d="M16.5798 33.01L16.5598 33.03C16.2898 32.44 16.1198 31.77 16.0498 31.03C16.1198 31.76 16.3098 32.42 16.5798 33.01Z" fill="#292D32"/>
<path d="M23.0001 24.38C24.3146 24.38 25.3801 23.3144 25.3801 22C25.3801 20.6856 24.3146 19.62 23.0001 19.62C21.6857 19.62 20.6201 20.6856 20.6201 22C20.6201 23.3144 21.6857 24.38 23.0001 24.38Z" fill="#292D32"/>
<path d="M30.19 16H21.81C18.17 16 16 18.17 16 21.81V30.19C16 31.28 16.19 32.23 16.56 33.03C17.42 34.93 19.26 36 21.81 36H30.19C33.83 36 36 33.83 36 30.19V27.9V21.81C36 18.17 33.83 16 30.19 16ZM34.37 26.5C33.59 25.83 32.33 25.83 31.55 26.5L27.39 30.07C26.61 30.74 25.35 30.74 24.57 30.07L24.23 29.79C23.52 29.17 22.39 29.11 21.59 29.65L17.85 32.16C17.63 31.6 17.5 30.95 17.5 30.19V21.81C17.5 18.99 18.99 17.5 21.81 17.5H30.19C33.01 17.5 34.5 18.99 34.5 21.81V26.61L34.37 26.5Z" fill="#292D32"/>
</svg>
