<svg width="27" height="27" viewBox="0 0 27 27" fill="none" xmlns="http://www.w3.org/2000/svg">
<g opacity="0.5">
<path d="M13.5 5.625V2.25L9 6.75L13.5 11.25V7.875C17.2238 7.875 20.25 10.9012 20.25 14.625C20.25 17.9663 17.8088 20.7337 14.625 21.2738V23.5462C19.0688 22.995 22.5 19.215 22.5 14.625C22.5 9.6525 18.4725 5.625 13.5 5.625ZM6.75 14.625C6.75 12.7688 7.50375 11.0813 8.73 9.855L7.1325 8.2575C6.29699 9.09394 5.63447 10.0868 5.18277 11.1794C4.73108 12.2719 4.49907 13.4428 4.5 14.625C4.5 19.215 7.93125 22.995 12.375 23.5462V21.2738C9.19125 20.7337 6.75 17.9663 6.75 14.625Z" fill="#292D32"/>
</g>
</svg>
