<svg width="17" height="19" viewBox="0 0 17 19" fill="none" xmlns="http://www.w3.org/2000/svg">
<path d="M9.95511 3.96254C10.125 4.13225 10.3554 4.22757 10.5955 4.22757C10.8357 4.22757 11.066 4.13225 11.2359 3.96254L12.1059 3.09254V15.4055C12.1059 15.6458 12.2014 15.8763 12.3714 16.0463C12.5413 16.2162 12.7718 16.3117 13.0122 16.3117C13.2525 16.3117 13.483 16.2162 13.653 16.0463C13.823 15.8763 13.9184 15.6458 13.9184 15.4055V3.09254L14.7884 3.96254C14.8714 4.05157 14.9715 4.12299 15.0826 4.17252C15.1938 4.22205 15.3138 4.24869 15.4355 4.25083C15.5572 4.25298 15.678 4.2306 15.7909 4.18502C15.9037 4.13944 16.0062 4.0716 16.0923 3.98554C16.1783 3.89948 16.2462 3.79698 16.2918 3.68413C16.3373 3.57129 16.3597 3.45042 16.3576 3.32874C16.3554 3.20705 16.3288 3.08705 16.2793 2.97589C16.2297 2.86472 16.1583 2.76467 16.0693 2.6817L13.6526 0.265036C13.4827 0.0953247 13.2523 0 13.0122 0C12.772 0 12.5417 0.0953247 12.3718 0.265036L9.95511 2.6817C9.78539 2.85162 9.69007 3.08196 9.69007 3.32212C9.69007 3.56228 9.78539 3.79261 9.95511 3.96254ZM4.25177 15.635L5.12177 14.765C5.20474 14.676 5.30479 14.6046 5.41596 14.555C5.52712 14.5055 5.64713 14.4789 5.76881 14.4767C5.89049 14.4746 6.01136 14.497 6.1242 14.5426C6.23705 14.5881 6.33955 14.656 6.42561 14.742C6.51167 14.8281 6.57951 14.9306 6.62509 15.0434C6.67067 15.1563 6.69305 15.2772 6.6909 15.3988C6.68876 15.5205 6.66212 15.6405 6.61259 15.7517C6.56306 15.8629 6.49164 15.9629 6.40261 16.0459L3.98594 18.4625C3.81602 18.6322 3.58568 18.7276 3.34552 18.7276C3.10537 18.7276 2.87503 18.6322 2.70511 18.4625L0.288439 16.0459C0.199401 15.9629 0.127985 15.8629 0.0784535 15.7517C0.0289215 15.6405 0.00228799 15.5205 0.00014104 15.3988C-0.00200591 15.2772 0.0203777 15.1563 0.0659573 15.0434C0.111537 14.9306 0.179378 14.8281 0.265434 14.742C0.35149 14.656 0.453998 14.5881 0.566842 14.5426C0.679686 14.497 0.800554 14.4746 0.922237 14.4767C1.04392 14.4789 1.16392 14.5055 1.27509 14.555C1.38626 14.6046 1.48631 14.676 1.56927 14.765L2.43927 15.635V3.32212C2.43927 3.08177 2.53475 2.85126 2.70471 2.6813C2.87466 2.51135 3.10517 2.41587 3.34552 2.41587C3.58587 2.41587 3.81638 2.51135 3.98634 2.6813C4.15629 2.85126 4.25177 3.08177 4.25177 3.32212V15.635Z" fill="#ADA7A7"/>
</svg>
