<svg width="24" height="25" viewBox="0 0 24 25" fill="none" xmlns="http://www.w3.org/2000/svg">
<g opacity="0.5">
<path d="M14.3498 2.5H9.64977C8.60977 2.5 7.75977 3.34 7.75977 4.38V5.32C7.75977 6.36 8.59977 7.2 9.63977 7.2H14.3498C15.3898 7.2 16.2298 6.36 16.2298 5.32V4.38C16.2398 3.34 15.3898 2.5 14.3498 2.5Z" fill="#292D32"/>
<path d="M17.24 5.32001C17.24 6.91001 15.94 8.21001 14.35 8.21001H9.65004C8.06004 8.21001 6.76004 6.91001 6.76004 5.32001C6.76004 4.76001 6.16004 4.41001 5.66004 4.67001C4.25004 5.42001 3.29004 6.91001 3.29004 8.62001V18.03C3.29004 20.49 5.30004 22.5 7.76004 22.5H16.24C18.7 22.5 20.71 20.49 20.71 18.03V8.62001C20.71 6.91001 19.75 5.42001 18.34 4.67001C17.84 4.41001 17.24 4.76001 17.24 5.32001ZM12.38 17.45H8.00004C7.59004 17.45 7.25004 17.11 7.25004 16.7C7.25004 16.29 7.59004 15.95 8.00004 15.95H12.38C12.79 15.95 13.13 16.29 13.13 16.7C13.13 17.11 12.79 17.45 12.38 17.45ZM15 13.45H8.00004C7.59004 13.45 7.25004 13.11 7.25004 12.7C7.25004 12.29 7.59004 11.95 8.00004 11.95H15C15.41 11.95 15.75 12.29 15.75 12.7C15.75 13.11 15.41 13.45 15 13.45Z" fill="#292D32"/>
</g>
</svg>
